<?xml version="1.0" standalone="no"?><!DOCTYPE svg PUBLIC "-//W3C//DTD SVG 1.1//EN" "http://www.w3.org/Graphics/SVG/1.1/DTD/svg11.dtd"><svg t="1713531943408" class="icon" viewBox="0 0 1024 1024" version="1.1" xmlns="http://www.w3.org/2000/svg" p-id="4260" xmlns:xlink="http://www.w3.org/1999/xlink" width="200" height="200"><path d="M213.34016 0l597.34016 0q53.00224 0 90.50112 37.49888t37.49888 90.50112l0 768q0 53.00224-37.49888 90.50112t-90.50112 37.49888l-597.34016 0q-53.00224 0-90.50112-37.49888t-37.49888-90.50112l0-768q0-53.00224 37.49888-90.50112t90.50112-37.49888zM341.34016 725.34016l341.34016 0q17.67424 0 30.16704 12.4928t12.4928 30.16704-12.4928 30.16704-30.16704 12.4928l-341.34016 0q-17.67424 0-30.16704-12.4928t-12.4928-30.16704 12.4928-30.16704 30.16704-12.4928zM341.34016 554.65984l341.34016 0q17.67424 0 30.16704 12.4928t12.4928 30.16704-12.4928 30.16704-30.16704 12.4928l-341.34016 0q-17.67424 0-30.16704-12.4928t-12.4928-30.16704 12.4928-30.16704 30.16704-12.4928zM810.65984 85.34016l-597.34016 0q-17.67424 0-30.16704 12.4928t-12.4928 30.16704l0 768q0 17.67424 12.4928 30.16704t30.16704 12.4928l597.34016 0q17.67424 0 30.16704-12.4928t12.4928-30.16704l0-768q0-17.67424-12.4928-30.16704t-30.16704-12.4928zM341.34016 384l341.34016 0q17.67424 0 30.16704 12.4928t12.4928 30.16704-12.4928 30.16704-30.16704 12.4928l-341.34016 0q-17.67424 0-30.16704-12.4928t-12.4928-30.16704 12.4928-30.16704 30.16704-12.4928zM341.34016 213.34016l170.65984 0q17.67424 0 30.16704 12.4928t12.4928 30.16704-12.4928 30.16704-30.16704 12.4928l-170.65984 0q-17.67424 0-30.16704-12.4928t-12.4928-30.16704 12.4928-30.16704 30.16704-12.4928z" fill="#444444" p-id="4261"></path></svg>